<svg xmlns="http://www.w3.org/2000/svg" viewBox="0 0 290 195">
  <style>
    :root {
      color-scheme: dark light;
      --text-gray: gray;
      --stroke-gray: lightgray;
    }
    @media (prefers-color-scheme: dark) {
    :root {
      --text-gray: lightgray;
      --stroke-gray: gray;
    }
    }

    text {
      font-family: sans-serif;
      font-size: 10px;
      fill: canvastext;
    }

    .custom-element-reaction-queue .reaction {
      font-size: 8px;
      text-anchor: middle;
    }

    .queue-in-stack rect {
      fill: transparent;
      stroke: var(--stroke-gray);
    }

    .backup-element-queue rect {
      fill: transparent;
      stroke-dasharray: 1, 1;
    }

    .backup-element-queue text, .processing-backup-element-queue-flag text {
      font-size: 7px;
    }

    line, path, rect {
      stroke: canvastext;
    }

    path[marker-start] {
      fill: transparent;
    }
  </style>

  <defs>
    <marker id="arrow" orient="auto" markerWidth="6" markerHeight="6" refX="5" refY="3">
      <path d="M0,0 V6 L5,3 Z" fill="canvastext"/>
    </marker>
    <marker id="circle" markerWidth="3" markerHeight="3" refX="1.5" refY="1.5">
      <circle cx="1.5" cy="1.5" r="1.5" fill="canvastext"/>
    </marker>
    <marker id="diamond" markerWidth="6" markerHeight="10" refX="3" refY="10">
      <path d="M3,0 L6,5 L3,10 L0,5 Z" fill="var(--text-gray)" stroke="canvastext"/>
    </marker>
  </defs>

  <g class="custom-elements-reaction-stack" transform="translate(0.5,0)">
    <text x="40" y="10" style="text-anchor: middle">custom element</text>
    <text x="40" y="20" style="text-anchor: middle">reactions stack</text>

    <line x1="0" x2="0" y1="30" y2="130"/>
    <line x1="0" x2="80" y1="50" y2="50"/>
    <line x1="0" x2="80" y1="70" y2="70"/>
    <line x1="0" x2="80" y1="90" y2="90"/>
    <line x1="0" x2="80" y1="110" y2="110"/>
    <line x1="0" x2="80" y1="130" y2="130"/>
    <line x1="80" x2="80" y1="130" y2="30"/>

    <g class="queue-in-stack" transform="translate(0,50)">
      <rect x="5" y="5" width="15" height="10" rx="2" ry="2"/>
      <rect x="25" y="5" width="15" height="10" rx="2" ry="2"/>
    </g>

    <g class="queue-in-stack" transform="translate(0,70)">
      <rect x="5" y="5" width="15" height="10" rx="2" ry="2"/>
      <rect x="25" y="5" width="15" height="10" rx="2" ry="2"/>
      <rect x="45" y="5" width="15" height="10" rx="2" ry="2"/>
      <text x="65" y="14">⋯</text>
    </g>

    <g class="queue-in-stack" transform="translate(0,90)">
      <rect x="5" y="5" width="15" height="10" rx="2" ry="2"/>
    </g>

    <g class="queue-in-stack" transform="translate(0,110)">
      <rect x="5" y="5" width="15" height="10" rx="2" ry="2"/>
      <rect x="25" y="5" width="15" height="10" rx="2" ry="2"/>
      <rect x="45" y="5" width="15" height="10" rx="2" ry="2"/>
    </g>
  </g>

  <path d="M40.5,140 L40,160" marker-start="url(#diamond)" marker-end="url(#arrow)"/>

  <g class="backup-element-queue" transform="translate(0.5,159.5)">
    <text x="40" y="10" style="text-anchor: middle">backup element queue</text>
    <rect x="0" y="15" width="80" height="20"/>
  </g>

  <path d="M60.5,140 C60.5,150 70,160 95.5,160" marker-start="url(#diamond)" marker-end="url(#arrow)"/>

  <g class="processing-backup-element-queue-flag" transform="translate(90,150)">
    <text x="40" y="10" style="text-anchor: middle">processing backup</text>
    <text x="40" y="18" style="text-anchor: middle">element queue flag</text>

    <g transform="translate(30,20) scale(0.05)">
      <!-- https://commons.wikimedia.org/wiki/File:White_flag_icon.svg (public domain) -->
      <path style="fill:none;stroke:canvastext;stroke-width:21;stroke-linecap:round" d="M42 327l0 -291"/>
      <path style="fill:var(--stroke-gray);stroke:canvastext;stroke-width:10;stroke-linejoin:round" d="M49 50c70,30 104,28 178,2 -21,42 -21,74 0,116 -72,25 -101,25 -178,0l0 -118z"/>
    </g>
  </g>

  <path d="M80.5,80.5 C100.5,80.5 100,80.5 100,60.5 S 100,40.5 124.5,40.5" marker-start="url(#circle)" marker-end="url(#arrow)"/>

  <g class="element-queue" transform="translate(124.5,20)">
    <text x="65" y="0" style="text-anchor: middle">element queue</text>
    <rect x="0" y="5" width="154.5" height="30" fill="transparent"/>

    <g class="element-queue-element" transform="translate(10,10)">
      <rect x="0" y="0" width="35" height="20" rx="5" ry="5" fill="transparent"/>
      <text x="18" y="14" style="text-anchor: middle">&lt;x-a&gt;</text>
    </g>

    <g class="element-queue-element" transform="translate(50,10)">
      <rect x="0" y="0" width="35" height="20" rx="5" ry="5" fill="transparent"/>
      <text x="18" y="14" style="text-anchor: middle">&lt;x-b&gt;</text>
    </g>

    <g class="element-queue-element" transform="translate(90,10)">
      <rect x="0" y="0" width="35" height="20" rx="5" ry="5" fill="transparent"/>
      <text x="18" y="14" style="text-anchor: middle">&lt;x-c&gt;</text>
    </g>

    <text x="135" y="24">⋯</text>
  </g>

  <path d="M192.5,60 C192.5,80 200,70 200,90" marker-start="url(#diamond)" marker-end="url(#arrow)"/>

  <g class="custom-element-reaction-queue" transform="translate(119.5,100)">
    <text x="85" y="0" style="text-anchor: middle">custom element reaction queue</text>
    <rect x="0" y="5" width="170" height="29.5" fill="transparent"/>

    <text x="20" y="24" class="reaction">Upgrade</text>

    <line x1="40" x2="40" y1="5" y2="35"/>

    <text x="60" y="18" class="reaction">Attribute</text>
    <text x="60" y="26" class="reaction">changed</text>

    <line x1="80" x2="80" y1="5" y2="35"/>

    <text x="100" y="18" class="reaction">Attribute</text>
    <text x="100" y="26" class="reaction">changed</text>

    <line x1="120" x2="120" y1="5" y2="35"/>

    <text x="145" y="24" class="reaction">Connected</text>
  </g>
</svg>
