<svg xmlns="http://www.w3.org/2000/svg" viewBox="0 0 345 535">

<!-- === definitions === -->

<style>
:root {
  font: 14px sans-serif, Droid Sans Fallback;
  color-scheme: dark light;
  --grad-start: canvas;
  --grad-end: #90ee90;
  --shadow-color: black;
}
@media (prefers-color-scheme: dark) {
:root {
  --grad-start: #338833;
  --grad-end: canvas;
  --shadow-color: #999;
}
}
text {
  fill: canvastext;
}
.code {
  font-family: monospace;
}
polyline.arrow {
  fill: transparent;
  stroke: canvastext;
}
polygon.arrow {
  fill: canvastext;
}
.box {
  stroke: canvastext;
  fill: url(#grad);
  filter: url(#dropshadow);
}
</style>

<filter id="dropshadow" height="130%">
  <feGaussianBlur in="SourceAlpha" stdDeviation="3"/> <!-- stdDeviation is how much to blur -->
  <feOffset dx="2" dy="2" result="offsetBlur"/> <!-- how much to offset -->
  <feFlood flood-color="var(--shadow-color)" flood-opacity="1" />
  <feComposite operator="in" in2="offsetBlur" />
  <feComposite operator="out" in2="SourceGraphic" />
  <feMerge>
    <feMergeNode /> <!-- this contains the offset blurred image -->
    <feMergeNode in="SourceGraphic"/> <!-- this contains the element that the filter is applied to -->
  </feMerge>
</filter>

<linearGradient y2="1" x2="0.5" y1="0" x1="0.5"
                gradientUnits="objectBoundingBox" id="grad">
  <stop stop-color="var(--grad-start)" offset="5%"/>
  <stop stop-color="var(--grad-end)" offset="95%"/>
</linearGradient>

<!-- === graphic === -->

<polygon class="box" points="40,10, 140,10, 110,60, 10,60"/>
<text text-anchor="middle" x="75" y="35">Network</text>

<polyline class="arrow" points="75,60, 75,100"/>
<polygon class="arrow" points="70,85, 80,85, 75,100"/>

<rect class="box" height="50" width="100" x="25" y="100"/>
<text text-anchor="middle" x="75" y="120">Byte Stream</text>
<text text-anchor="middle" x="75" y="135">Decoder</text>

<polyline class="arrow" points="75,150, 75,190"/>
<polygon class="arrow" points="70,175,80,175,75,190"/>

<rect class="box" height="50" width="100" x="25" y="190"/>
<text text-anchor="middle" x="75" y="210">Input Stream</text>
<text text-anchor="middle" x="75" y="225">Preprocessor</text>

<polyline class="arrow" points="75,240, 75,280"/>
<polygon class="arrow" points="70,265,80,265,75,280"/>

<rect class="box" height="50" width="100" x="25" y="280"/>
<text text-anchor="middle" x="75" y="305">Tokenizer</text>

<polyline class="arrow" points="75,330, 75,370"/>
<polygon class="arrow" points="70,355, 80,355, 75,370"/>

<rect class="box" height="50" width="100" x="25" y="370"/>
<text text-anchor="middle" x="75" y="390">Tree</text>
<text text-anchor="middle" x="75" y="405">Construction</text>

<polyline class="arrow" points="75,420, 75,460"/> <!-- line down -->
<polygon class="arrow" points="70,445, 80,445, 75,460"/>

<polyline class="arrow"  points="125,395, 225,395"/> <!-- line right -->
<polygon class="arrow" points="210,390, 210,400, 225,395"/>

<path class="box" d="M 25,520 L 25,460 L 125,460 L 125,510 C 70,510 80,530 25,520"/>
<text text-anchor="middle" x="75" y="495">DOM</text>

<polyline stroke-dasharray="6" class="arrow" points="125,490, 275,490, 275,420"/>

<rect class="box" height="50" width="100" x="225" y="370"/>
<text text-anchor="middle" x="275" y="390">Script</text>
<text text-anchor="middle" x="275" y="405">Execution</text>

<polyline class="arrow" points="275,370, 275,215, 125,215"/>
<polygon class="arrow" points="125,215, 135,210, 135,220"/>
<text class="code" text-anchor="end" x="270" y="230">document.write()</text>

</svg>
